{"scene":0,"asset":{"generator":"ImageToStl.com","version":"2.0"},"scenes":[{"name":"Scene","nodes":[0]}],"nodes":[{"name":"Node0","children":[1]},{"name":"Node1","mesh":0}],"materials":[{"name":"Bark","pbrMetallicRoughness":{"baseColorFactor":[0.207595,0.138513,0.055181,1.0],"metallicFactor":0.0,"roughnessFactor":0.744},"doubleSided":true},{"name":"Tree","pbrMetallicRoughness":{"baseColorFactor":[0.256861,0.440506,0.110769,1.0],"metallicFactor":0.0,"roughnessFactor":0.744},"doubleSided":true}],"meshes":[{"name":"Mesh0","primitives":[{"indices":3,"material":0,"attributes":{"POSITION":0,"NORMAL":1,"TEXCOORD_0":2}},{"indices":4,"material":1,"attributes":{"POSITION":0,"NORMAL":1,"TEXCOORD_0":2}}]}],"accessors":[{"bufferView":0,"componentType":5126,"count":1124,"type":"VEC3","min":[-14.0619,-0.742633,-13.472],"max":[13.9192,25.7991,7.32972]},{"bufferView":1,"componentType":5126,"count":1124,"type":"VEC3"},{"bufferView":2,"componentType":5126,"count":1124,"type":"VEC2"},{"bufferView":3,"componentType":5123,"count":3420,"type":"SCALAR"},{"bufferView":4,"componentType":5123,"count":1080,"type":"SCALAR"}],"bufferViews":[{"target":34962,"buffer":0,"byteLength":13488,"byteOffset":0},{"target":34962,"buffer":0,"byteLength":13488,"byteOffset":13488},{"target":34962,"buffer":0,"byteLength":8992,"byteOffset":26976},{"target":34963,"buffer":0,"byteLength":6840,"byteOffset":35968},{"target":34963,"buffer":0,"byteLength":2160,"byteOffset":42808}],"buffers":[{"byteLength":44968,"uri":"data:application/octet-stream;base64,"}]}