{
	"asset":{
		"generator":"Khronos glTF Blender I/O v5.0.21",
		"version":"2.0"
	},
	"scene":0,
	"scenes":[
		{
			"name":"Scene",
			"nodes":[
				14
			]
		}
	],
	"nodes":[
		{
			"name":"BirdRetop:polySurface1"
		},
		{
			"name":"Object_6"
		},
		{
			"name":"Bird_LeftWing_Tip_02",
			"rotation":[
				6.643520844562545e-09,
				-0.25543418526649475,
				2.5145922677438648e-08,
				0.9668264389038086
			],
			"scale":[
				0.9999999403953552,
				1,
				0.9999999403953552
			],
			"translation":[
				-0.22884097695350647,
				-2.2276763916015625,
				-1.2775413990020752
			]
		},
		{
			"children":[
				2
			],
			"name":"Bird_LeftWing_Pivot_01",
			"rotation":[
				-1.4451224217282288e-07,
				0.1748194545507431,
				-6.087935133791689e-08,
				0.9846005439758301
			],
			"translation":[
				0.8469961881637573,
				-0.19944092631340027,
				2.9271205903569353e-07
			]
		},
		{
			"name":"Bird_RightWing_Tip_04",
			"rotation":[
				-5.4255755443932685e-09,
				-0.9725307822227478,
				2.2668041665951932e-08,
				0.23277434706687927
			],
			"scale":[
				0.9999999403953552,
				1,
				0.9999999403953552
			],
			"translation":[
				-0.3190777003765106,
				-2.219698667526245,
				1.229040265083313
			]
		},
		{
			"children":[
				4
			],
			"name":"Bird_RightWing_Pivot_03",
			"rotation":[
				-1.590316323074603e-08,
				0.9500176906585693,
				-1.6038245576055488e-07,
				0.31219595670700073
			],
			"scale":[
				1,
				0.9999998807907104,
				1
			],
			"translation":[
				-0.7935823202133179,
				-0.20741842687129974,
				-0.3204847276210785
			]
		},
		{
			"children":[
				3,
				5
			],
			"name":"Bird_Body_00",
			"rotation":[
				8.855131738982891e-08,
				-0.6463748812675476,
				1.0453134535737263e-07,
				0.7630199790000916
			],
			"translation":[
				3.8988704681396484,
				0,
				6.173602855596982e-07
			]
		},
		{
			"children":[
				6
			],
			"name":"Bird_Root_05",
			"rotation":[
				-1.2560738395711113e-15,
				0.7071067094802856,
				3.743392066509216e-23,
				0.7071068286895752
			],
			"translation":[
				-0.005488704424351454,
				2.427117347717285,
				5.03591775894165
			]
		},
		{
			"children":[
				7
			],
			"name":"_rootJoint",
			"rotation":[
				-8.557136332854043e-09,
				1.7114272665708086e-08,
				-2.928983286277023e-16,
				1
			]
		},
		{
			"mesh":0,
			"name":"Object_7",
			"skin":0
		},
		{
			"children":[
				0,
				1,
				9,
				8
			],
			"name":"Object_4"
		},
		{
			"children":[
				10
			],
			"name":"RootNode"
		},
		{
			"children":[
				11
			],
			"name":"Object_2"
		},
		{
			"children":[
				12
			],
			"name":"48a629d8f15541558d2298aec3d77cfd.fbx",
			"rotation":[
				0.70710688829422,
				0,
				0,
				0.7071066498756409
			]
		},
		{
			"children":[
				13
			],
			"name":"Sketchfab_model",
			"rotation":[
				-0.70710688829422,
				0,
				0,
				0.7071066498756409
			]
		}
	],
	"animations":[
		{
			"channels":[
				{
					"sampler":0,
					"target":{
						"node":8,
						"path":"translation"
					}
				},
				{
					"sampler":1,
					"target":{
						"node":8,
						"path":"rotation"
					}
				},
				{
					"sampler":2,
					"target":{
						"node":8,
						"path":"scale"
					}
				},
				{
					"sampler":3,
					"target":{
						"node":7,
						"path":"translation"
					}
				},
				{
					"sampler":4,
					"target":{
						"node":7,
						"path":"rotation"
					}
				},
				{
					"sampler":5,
					"target":{
						"node":7,
						"path":"scale"
					}
				},
				{
					"sampler":6,
					"target":{
						"node":6,
						"path":"translation"
					}
				},
				{
					"sampler":7,
					"target":{
						"node":6,
						"path":"rotation"
					}
				},
				{
					"sampler":8,
					"target":{
						"node":6,
						"path":"scale"
					}
				},
				{
					"sampler":9,
					"target":{
						"node":3,
						"path":"translation"
					}
				},
				{
					"sampler":10,
					"target":{
						"node":3,
						"path":"rotation"
					}
				},
				{
					"sampler":11,
					"target":{
						"node":3,
						"path":"scale"
					}
				},
				{
					"sampler":12,
					"target":{
						"node":2,
						"path":"translation"
					}
				},
				{
					"sampler":13,
					"target":{
						"node":2,
						"path":"rotation"
					}
				},
				{
					"sampler":14,
					"target":{
						"node":2,
						"path":"scale"
					}
				},
				{
					"sampler":15,
					"target":{
						"node":5,
						"path":"translation"
					}
				},
				{
					"sampler":16,
					"target":{
						"node":5,
						"path":"rotation"
					}
				},
				{
					"sampler":17,
					"target":{
						"node":5,
						"path":"scale"
					}
				},
				{
					"sampler":18,
					"target":{
						"node":4,
						"path":"translation"
					}
				},
				{
					"sampler":19,
					"target":{
						"node":4,
						"path":"rotation"
					}
				},
				{
					"sampler":20,
					"target":{
						"node":4,
						"path":"scale"
					}
				}
			],
			"name":"Take 001",
			"samplers":[
				{
					"input":8,
					"interpolation":"STEP",
					"output":9
				},
				{
					"input":8,
					"interpolation":"STEP",
					"output":10
				},
				{
					"input":8,
					"interpolation":"STEP",
					"output":11
				},
				{
					"input":8,
					"interpolation":"STEP",
					"output":12
				},
				{
					"input":8,
					"interpolation":"STEP",
					"output":13
				},
				{
					"input":8,
					"interpolation":"STEP",
					"output":11
				},
				{
					"input":8,
					"interpolation":"STEP",
					"output":14
				},
				{
					"input":8,
					"interpolation":"STEP",
					"output":15
				},
				{
					"input":8,
					"interpolation":"STEP",
					"output":11
				},
				{
					"input":8,
					"interpolation":"STEP",
					"output":16
				},
				{
					"input":17,
					"interpolation":"LINEAR",
					"output":18
				},
				{
					"input":8,
					"interpolation":"STEP",
					"output":19
				},
				{
					"input":8,
					"interpolation":"STEP",
					"output":20
				},
				{
					"input":8,
					"interpolation":"STEP",
					"output":21
				},
				{
					"input":8,
					"interpolation":"STEP",
					"output":22
				},
				{
					"input":8,
					"interpolation":"STEP",
					"output":23
				},
				{
					"input":17,
					"interpolation":"LINEAR",
					"output":24
				},
				{
					"input":8,
					"interpolation":"STEP",
					"output":25
				},
				{
					"input":8,
					"interpolation":"STEP",
					"output":26
				},
				{
					"input":8,
					"interpolation":"STEP",
					"output":27
				},
				{
					"input":8,
					"interpolation":"STEP",
					"output":28
				}
			]
		}
	],
	"materials":[
		{
			"doubleSided":true,
			"name":"blinn2",
			"normalTexture":{
				"index":0,
				"scale":0
			},
			"pbrMetallicRoughness":{
				"baseColorTexture":{
					"index":1
				},
				"metallicFactor":0
			}
		}
	],
	"meshes":[
		{
			"name":"BirdRetop:polySurface1_blinn2_0",
			"primitives":[
				{
					"attributes":{
						"POSITION":0,
						"NORMAL":1,
						"TEXCOORD_0":2,
						"TANGENT":3,
						"JOINTS_0":4,
						"WEIGHTS_0":5
					},
					"indices":6,
					"material":0
				}
			]
		}
	],
	"textures":[
		{
			"sampler":0,
			"source":0
		},
		{
			"sampler":0,
			"source":1
		}
	],
	"images":[
		{
			"mimeType":"image/jpeg",
			"name":"Image_1",
			"uri":"Image_1.jpg"
		},
		{
			"mimeType":"image/jpeg",
			"name":"Image_0",
			"uri":"Image_0.jpg"
		}
	],
	"skins":[
		{
			"inverseBindMatrices":7,
			"joints":[
				8,
				7,
				6,
				3,
				2,
				5,
				4
			],
			"name":"Object_4"
		}
	],
	"accessors":[
		{
			"bufferView":0,
			"componentType":5126,
			"count":1783,
			"max":[
				4.705148696899414,
				2.821737766265869,
				3.8665592670440674
			],
			"min":[
				-4.600831031799316,
				0.7414191961288452,
				-1.6822748184204102
			],
			"type":"VEC3"
		},
		{
			"bufferView":1,
			"componentType":5126,
			"count":1783,
			"type":"VEC3"
		},
		{
			"bufferView":2,
			"componentType":5126,
			"count":1783,
			"type":"VEC2"
		},
		{
			"bufferView":3,
			"componentType":5126,
			"count":1783,
			"type":"VEC4"
		},
		{
			"bufferView":4,
			"componentType":5121,
			"count":1783,
			"type":"VEC4"
		},
		{
			"bufferView":5,
			"componentType":5126,
			"count":1783,
			"type":"VEC4"
		},
		{
			"bufferView":6,
			"componentType":5123,
			"count":6804,
			"type":"SCALAR"
		},
		{
			"bufferView":7,
			"componentType":5126,
			"count":7,
			"type":"MAT4"
		},
		{
			"bufferView":8,
			"componentType":5126,
			"count":2,
			"max":[
				4.958333333333333
			],
			"min":[
				0.041666666666666664
			],
			"type":"SCALAR"
		},
		{
			"bufferView":9,
			"componentType":5126,
			"count":2,
			"type":"VEC3"
		},
		{
			"bufferView":10,
			"componentType":5126,
			"count":2,
			"type":"VEC4"
		},
		{
			"bufferView":11,
			"componentType":5126,
			"count":2,
			"type":"VEC3"
		},
		{
			"bufferView":12,
			"componentType":5126,
			"count":2,
			"type":"VEC3"
		},
		{
			"bufferView":13,
			"componentType":5126,
			"count":2,
			"type":"VEC4"
		},
		{
			"bufferView":14,
			"componentType":5126,
			"count":2,
			"type":"VEC3"
		},
		{
			"bufferView":15,
			"componentType":5126,
			"count":2,
			"type":"VEC4"
		},
		{
			"bufferView":16,
			"componentType":5126,
			"count":2,
			"type":"VEC3"
		},
		{
			"bufferView":17,
			"componentType":5126,
			"count":119,
			"max":[
				4.958333333333333
			],
			"min":[
				0.041666666666666664
			],
			"type":"SCALAR"
		},
		{
			"bufferView":18,
			"componentType":5126,
			"count":119,
			"type":"VEC4"
		},
		{
			"bufferView":19,
			"componentType":5126,
			"count":2,
			"type":"VEC3"
		},
		{
			"bufferView":20,
			"componentType":5126,
			"count":2,
			"type":"VEC3"
		},
		{
			"bufferView":21,
			"componentType":5126,
			"count":2,
			"type":"VEC4"
		},
		{
			"bufferView":22,
			"componentType":5126,
			"count":2,
			"type":"VEC3"
		},
		{
			"bufferView":23,
			"componentType":5126,
			"count":2,
			"type":"VEC3"
		},
		{
			"bufferView":24,
			"componentType":5126,
			"count":119,
			"type":"VEC4"
		},
		{
			"bufferView":25,
			"componentType":5126,
			"count":2,
			"type":"VEC3"
		},
		{
			"bufferView":26,
			"componentType":5126,
			"count":2,
			"type":"VEC3"
		},
		{
			"bufferView":27,
			"componentType":5126,
			"count":2,
			"type":"VEC4"
		},
		{
			"bufferView":28,
			"componentType":5126,
			"count":2,
			"type":"VEC3"
		}
	],
	"bufferViews":[
		{
			"buffer":0,
			"byteLength":21396,
			"byteOffset":0,
			"target":34962
		},
		{
			"buffer":0,
			"byteLength":21396,
			"byteOffset":21396,
			"target":34962
		},
		{
			"buffer":0,
			"byteLength":14264,
			"byteOffset":42792,
			"target":34962
		},
		{
			"buffer":0,
			"byteLength":28528,
			"byteOffset":57056,
			"target":34962
		},
		{
			"buffer":0,
			"byteLength":7132,
			"byteOffset":85584,
			"target":34962
		},
		{
			"buffer":0,
			"byteLength":28528,
			"byteOffset":92716,
			"target":34962
		},
		{
			"buffer":0,
			"byteLength":13608,
			"byteOffset":121244,
			"target":34963
		},
		{
			"buffer":0,
			"byteLength":448,
			"byteOffset":134852
		},
		{
			"buffer":0,
			"byteLength":8,
			"byteOffset":135300
		},
		{
			"buffer":0,
			"byteLength":24,
			"byteOffset":135308
		},
		{
			"buffer":0,
			"byteLength":32,
			"byteOffset":135332
		},
		{
			"buffer":0,
			"byteLength":24,
			"byteOffset":135364
		},
		{
			"buffer":0,
			"byteLength":24,
			"byteOffset":135388
		},
		{
			"buffer":0,
			"byteLength":32,
			"byteOffset":135412
		},
		{
			"buffer":0,
			"byteLength":24,
			"byteOffset":135444
		},
		{
			"buffer":0,
			"byteLength":32,
			"byteOffset":135468
		},
		{
			"buffer":0,
			"byteLength":24,
			"byteOffset":135500
		},
		{
			"buffer":0,
			"byteLength":476,
			"byteOffset":135524
		},
		{
			"buffer":0,
			"byteLength":1904,
			"byteOffset":136000
		},
		{
			"buffer":0,
			"byteLength":24,
			"byteOffset":137904
		},
		{
			"buffer":0,
			"byteLength":24,
			"byteOffset":137928
		},
		{
			"buffer":0,
			"byteLength":32,
			"byteOffset":137952
		},
		{
			"buffer":0,
			"byteLength":24,
			"byteOffset":137984
		},
		{
			"buffer":0,
			"byteLength":24,
			"byteOffset":138008
		},
		{
			"buffer":0,
			"byteLength":1904,
			"byteOffset":138032
		},
		{
			"buffer":0,
			"byteLength":24,
			"byteOffset":139936
		},
		{
			"buffer":0,
			"byteLength":24,
			"byteOffset":139960
		},
		{
			"buffer":0,
			"byteLength":32,
			"byteOffset":139984
		},
		{
			"buffer":0,
			"byteLength":24,
			"byteOffset":140016
		}
	],
	"samplers":[
		{
			"magFilter":9729,
			"minFilter":9987
		}
	],
	"buffers":[
		{
			"byteLength":140040,
			"uri":"Bird.bin"
		}
	]
}
