{
	"asset":{
		"generator":"Khronos glTF Blender I/O v4.5.49",
		"version":"2.0"
	},
	"scene":0,
	"scenes":[
		{
			"name":"Scene",
			"nodes":[
				5
			]
		}
	],
	"nodes":[
		{
			"mesh":0,
			"name":"Koster_low_Koster1_0",
			"translation":[
				0,
				-6.619677151320502e-06,
				4.75678825750947e-06
			]
		},
		{
			"children":[
				0
			],
			"name":"Object_4",
			"translation":[
				3097.15234375,
				844.396728515625,
				123.17578887939453
			]
		},
		{
			"children":[
				1
			],
			"name":"Koster_low",
			"rotation":[
				-0.70710688829422,
				0,
				0,
				0.7071066498756409
			],
			"scale":[
				0.1484520137310028,
				0.148452028632164,
				0.148452028632164
			],
			"translation":[
				-5389.14111328125,
				-10.971649169921875,
				512.0758056640625
			]
		},
		{
			"children":[
				2
			],
			"name":"RootNode"
		},
		{
			"children":[
				3
			],
			"name":"804b7c00de7044d4b8cdab7d4b298189.fbx",
			"rotation":[
				0.70710688829422,
				0,
				0,
				0.7071066498756409
			],
			"scale":[
				0.0010000000474974513,
				0.0010000001639127731,
				0.0010000001639127731
			]
		},
		{
			"children":[
				4
			],
			"name":"Sketchfab_model",
			"rotation":[
				-0.70710688829422,
				0,
				0,
				0.7071066498756409
			]
		}
	],
	"materials":[
		{
			"doubleSided":true,
			"name":"Koster1",
			"normalTexture":{
				"index":0
			},
			"occlusionTexture":{
				"index":1
			},
			"pbrMetallicRoughness":{
				"baseColorTexture":{
					"index":2
				},
				"metallicRoughnessTexture":{
					"index":1
				}
			}
		}
	],
	"meshes":[
		{
			"name":"Koster_low_Koster1_0",
			"primitives":[
				{
					"attributes":{
						"POSITION":0,
						"NORMAL":1,
						"TEXCOORD_0":2,
						"TANGENT":3
					},
					"indices":4,
					"material":0
				}
			]
		}
	],
	"textures":[
		{
			"sampler":0,
			"source":0
		},
		{
			"sampler":0,
			"source":1
		},
		{
			"sampler":0,
			"source":2
		}
	],
	"images":[
		{
			"mimeType":"image/png",
			"name":"Image_2",
			"uri":"Image_2.png"
		},
		{
			"mimeType":"image/png",
			"name":"Image_1",
			"uri":"Image_1.png"
		},
		{
			"mimeType":"image/png",
			"name":"Image_0",
			"uri":"Image_0.png"
		}
	],
	"accessors":[
		{
			"bufferView":0,
			"componentType":5126,
			"count":1184,
			"max":[
				1388.7205810546875,
				3545.71142578125,
				3859.826171875
			],
			"min":[
				-7583.0283203125,
				-5234.505859375,
				-889.9371337890625
			],
			"type":"VEC3"
		},
		{
			"bufferView":1,
			"componentType":5126,
			"count":1184,
			"type":"VEC3"
		},
		{
			"bufferView":2,
			"componentType":5126,
			"count":1184,
			"type":"VEC2"
		},
		{
			"bufferView":3,
			"componentType":5126,
			"count":1184,
			"type":"VEC4"
		},
		{
			"bufferView":4,
			"componentType":5123,
			"count":5430,
			"type":"SCALAR"
		}
	],
	"bufferViews":[
		{
			"buffer":0,
			"byteLength":14208,
			"byteOffset":0,
			"target":34962
		},
		{
			"buffer":0,
			"byteLength":14208,
			"byteOffset":14208,
			"target":34962
		},
		{
			"buffer":0,
			"byteLength":9472,
			"byteOffset":28416,
			"target":34962
		},
		{
			"buffer":0,
			"byteLength":18944,
			"byteOffset":37888,
			"target":34962
		},
		{
			"buffer":0,
			"byteLength":10860,
			"byteOffset":56832,
			"target":34963
		}
	],
	"samplers":[
		{
			"magFilter":9729,
			"minFilter":9987
		}
	],
	"buffers":[
		{
			"byteLength":67692,
			"uri":"Campfire.bin"
		}
	]
}
