{
	"asset":{
		"generator":"Khronos glTF Blender I/O v4.5.49",
		"version":"2.0"
	},
	"scene":0,
	"scenes":[
		{
			"name":"Scene",
			"nodes":[
				1
			]
		}
	],
	"nodes":[
		{
			"mesh":0,
			"name":"leaves"
		},
		{
			"children":[
				0
			],
			"mesh":1,
			"name":"tree"
		}
	],
	"materials":[
		{
			"doubleSided":true,
			"name":"leaf",
			"pbrMetallicRoughness":{
				"baseColorFactor":[
					0.1716092824935913,
					0.30319687724113464,
					0.010771824046969414,
					1
				],
				"metallicFactor":0,
				"roughnessFactor":0.5
			}
		},
		{
			"doubleSided":true,
			"name":"trunk",
			"pbrMetallicRoughness":{
				"baseColorFactor":[
					0.3343227505683899,
					0.1349007785320282,
					0.02529202029109001,
					1
				],
				"metallicFactor":0,
				"roughnessFactor":0.5
			}
		}
	],
	"meshes":[
		{
			"name":"leaves",
			"primitives":[
				{
					"attributes":{
						"POSITION":0,
						"NORMAL":1,
						"TEXCOORD_0":2
					},
					"indices":3,
					"material":0
				}
			]
		},
		{
			"name":"tree",
			"primitives":[
				{
					"attributes":{
						"POSITION":4,
						"NORMAL":5,
						"TEXCOORD_0":6
					},
					"indices":7,
					"material":1
				}
			]
		}
	],
	"accessors":[
		{
			"bufferView":0,
			"componentType":5126,
			"count":29650,
			"max":[
				2.6344621181488037,
				6.822361946105957,
				2.848778486251831
			],
			"min":[
				-3.1500937938690186,
				0.7873389720916748,
				-3.197077989578247
			],
			"type":"VEC3"
		},
		{
			"bufferView":1,
			"componentType":5126,
			"count":29650,
			"type":"VEC3"
		},
		{
			"bufferView":2,
			"componentType":5126,
			"count":29650,
			"type":"VEC2"
		},
		{
			"bufferView":3,
			"componentType":5123,
			"count":57528,
			"type":"SCALAR"
		},
		{
			"bufferView":4,
			"componentType":5126,
			"count":32312,
			"max":[
				2.493309259414673,
				6.4843950271606445,
				2.5182180404663086
			],
			"min":[
				-2.913335084915161,
				0,
				-2.9490878582000732
			],
			"type":"VEC3"
		},
		{
			"bufferView":5,
			"componentType":5126,
			"count":32312,
			"type":"VEC3"
		},
		{
			"bufferView":6,
			"componentType":5126,
			"count":32312,
			"type":"VEC2"
		},
		{
			"bufferView":7,
			"componentType":5123,
			"count":159408,
			"type":"SCALAR"
		}
	],
	"bufferViews":[
		{
			"buffer":0,
			"byteLength":355800,
			"byteOffset":0,
			"target":34962
		},
		{
			"buffer":0,
			"byteLength":355800,
			"byteOffset":355800,
			"target":34962
		},
		{
			"buffer":0,
			"byteLength":237200,
			"byteOffset":711600,
			"target":34962
		},
		{
			"buffer":0,
			"byteLength":115056,
			"byteOffset":948800,
			"target":34963
		},
		{
			"buffer":0,
			"byteLength":387744,
			"byteOffset":1063856,
			"target":34962
		},
		{
			"buffer":0,
			"byteLength":387744,
			"byteOffset":1451600,
			"target":34962
		},
		{
			"buffer":0,
			"byteLength":258496,
			"byteOffset":1839344,
			"target":34962
		},
		{
			"buffer":0,
			"byteLength":318816,
			"byteOffset":2097840,
			"target":34963
		}
	],
	"buffers":[
		{
			"byteLength":2416656,
			"uri":"tree.bin"
		}
	]
}
