{
	"asset":{
		"generator":"Khronos glTF Blender I/O v4.5.49",
		"version":"2.0"
	},
	"scene":0,
	"scenes":[
		{
			"name":"Scene",
			"nodes":[
				3
			]
		}
	],
	"nodes":[
		{
			"mesh":0,
			"name":"Material-material"
		},
		{
			"children":[
				0
			],
			"name":"small"
		},
		{
			"children":[
				1
			],
			"name":"Collada visual scene group"
		},
		{
			"children":[
				2
			],
			"name":"Sketchfab_model",
			"rotation":[
				-0.70710688829422,
				0,
				0,
				0.7071066498756409
			],
			"scale":[
				0.3678657114505768,
				0.36786574125289917,
				0.36786574125289917
			]
		}
	],
	"materials":[
		{
			"doubleSided":true,
			"name":"Material.001",
			"pbrMetallicRoughness":{
				"baseColorTexture":{
					"index":0
				},
				"metallicFactor":0,
				"roughnessFactor":0.6000000238418579
			}
		}
	],
	"meshes":[
		{
			"name":"Material-material",
			"primitives":[
				{
					"attributes":{
						"POSITION":0,
						"NORMAL":1,
						"TEXCOORD_0":2,
						"TANGENT":3
					},
					"indices":4,
					"material":0
				}
			]
		}
	],
	"textures":[
		{
			"sampler":0,
			"source":0
		}
	],
	"images":[
		{
			"mimeType":"image/jpeg",
			"name":"Image_0",
			"uri":"Image_0.jpg"
		}
	],
	"accessors":[
		{
			"bufferView":0,
			"componentType":5126,
			"count":646,
			"max":[
				4.996857166290283,
				5.538492202758789,
				10.576720237731934
			],
			"min":[
				-4.996857166290283,
				-4.996857166290283,
				-0.06210147961974144
			],
			"type":"VEC3"
		},
		{
			"bufferView":1,
			"componentType":5126,
			"count":646,
			"type":"VEC3"
		},
		{
			"bufferView":2,
			"componentType":5126,
			"count":646,
			"type":"VEC2"
		},
		{
			"bufferView":3,
			"componentType":5126,
			"count":646,
			"type":"VEC4"
		},
		{
			"bufferView":4,
			"componentType":5123,
			"count":816,
			"type":"SCALAR"
		}
	],
	"bufferViews":[
		{
			"buffer":0,
			"byteLength":7752,
			"byteOffset":0,
			"target":34962
		},
		{
			"buffer":0,
			"byteLength":7752,
			"byteOffset":7752,
			"target":34962
		},
		{
			"buffer":0,
			"byteLength":5168,
			"byteOffset":15504,
			"target":34962
		},
		{
			"buffer":0,
			"byteLength":10336,
			"byteOffset":20672,
			"target":34962
		},
		{
			"buffer":0,
			"byteLength":1632,
			"byteOffset":31008,
			"target":34963
		}
	],
	"samplers":[
		{
			"magFilter":9729,
			"minFilter":9987
		}
	],
	"buffers":[
		{
			"byteLength":32640,
			"uri":"Cabin.bin"
		}
	]
}
