{
	"asset":{
		"generator":"Khronos glTF Blender I/O v4.5.49",
		"version":"2.0"
	},
	"scene":0,
	"scenes":[
		{
			"name":"Scene",
			"nodes":[
				0
			]
		}
	],
	"nodes":[
		{
			"mesh":0,
			"name":"RootNode",
			"scale":[
				75,
				75,
				75
			]
		}
	],
	"materials":[
		{
			"name":"Gaea Basic Landscape",
			"normalTexture":{
				"index":0
			},
			"pbrMetallicRoughness":{
				"baseColorTexture":{
					"index":1
				},
				"metallicFactor":0
			}
		}
	],
	"meshes":[
		{
			"name":"Mesh",
			"primitives":[
				{
					"attributes":{
						"POSITION":0,
						"NORMAL":1,
						"TEXCOORD_0":2
					},
					"indices":3,
					"material":0
				}
			]
		}
	],
	"textures":[
		{
			"sampler":0,
			"source":0
		},
		{
			"sampler":0,
			"source":1
		}
	],
	"images":[
		{
			"mimeType":"image/png",
			"name":"Normals_Out",
			"uri":"Normals_Out.png"
		},
		{
			"mimeType":"image/png",
			"name":"SatMap_Out",
			"uri":"SatMap_Out.png"
		}
	],
	"accessors":[
		{
			"bufferView":0,
			"componentType":5126,
			"count":4362598,
			"max":[
				1,
				0.5095522403717041,
				1
			],
			"min":[
				0,
				0.3215446472167969,
				0
			],
			"type":"VEC3"
		},
		{
			"bufferView":1,
			"componentType":5126,
			"count":4362598,
			"type":"VEC3"
		},
		{
			"bufferView":2,
			"componentType":5126,
			"count":4362598,
			"type":"VEC2"
		},
		{
			"bufferView":3,
			"componentType":5125,
			"count":25141254,
			"type":"SCALAR"
		}
	],
	"bufferViews":[
		{
			"buffer":0,
			"byteLength":52351176,
			"byteOffset":0,
			"target":34962
		},
		{
			"buffer":0,
			"byteLength":52351176,
			"byteOffset":52351176,
			"target":34962
		},
		{
			"buffer":0,
			"byteLength":34900784,
			"byteOffset":104702352,
			"target":34962
		},
		{
			"buffer":0,
			"byteLength":100565016,
			"byteOffset":139603136,
			"target":34963
		}
	],
	"samplers":[
		{
			"magFilter":9729,
			"minFilter":9987
		}
	],
	"buffers":[
		{
			"byteLength":240168152,
			"uri":"CourseWorkProject.bin"
		}
	]
}
