{
	"asset":{
		"generator":"Khronos glTF Blender I/O v4.5.49",
		"version":"2.0"
	},
	"extensionsUsed":[
		"KHR_materials_specular"
	],
	"scene":0,
	"scenes":[
		{
			"name":"Scene",
			"nodes":[
				0
			]
		}
	],
	"nodes":[
		{
			"mesh":0,
			"name":"Snowman_LOD0",
			"scale":[
				0.009999999776482582,
				0.009999999776482582,
				0.009999999776482582
			]
		}
	],
	"materials":[
		{
			"doubleSided":true,
			"extensions":{
				"KHR_materials_specular":{
					"specularFactor":0
				}
			},
			"name":"07 - Default",
			"normalTexture":{
				"index":0
			},
			"pbrMetallicRoughness":{
				"baseColorTexture":{
					"index":1
				},
				"roughnessFactor":0.858578622341156
			}
		}
	],
	"meshes":[
		{
			"name":"Mesh",
			"primitives":[
				{
					"attributes":{
						"POSITION":0,
						"NORMAL":1,
						"TEXCOORD_0":2,
						"TEXCOORD_1":3,
						"TANGENT":4
					},
					"indices":5,
					"material":0
				}
			]
		}
	],
	"textures":[
		{
			"sampler":0,
			"source":0
		},
		{
			"sampler":0,
			"source":1
		}
	],
	"images":[
		{
			"mimeType":"image/png",
			"name":"Snowman_Normal",
			"uri":"Snowman_Normal.png"
		},
		{
			"mimeType":"image/png",
			"name":"Snowman_Albedo_01",
			"uri":"Snowman_Albedo_01%20%28A%20Smoothness%29.png"
		}
	],
	"accessors":[
		{
			"bufferView":0,
			"componentType":5126,
			"count":1235,
			"max":[
				105.23360443115234,
				206.0736083984375,
				64.57337951660156
			],
			"min":[
				-102.25231170654297,
				1.1672838926315308,
				-47.493072509765625
			],
			"type":"VEC3"
		},
		{
			"bufferView":1,
			"componentType":5126,
			"count":1235,
			"type":"VEC3"
		},
		{
			"bufferView":2,
			"componentType":5126,
			"count":1235,
			"type":"VEC2"
		},
		{
			"bufferView":3,
			"componentType":5126,
			"count":1235,
			"type":"VEC2"
		},
		{
			"bufferView":4,
			"componentType":5126,
			"count":1235,
			"type":"VEC4"
		},
		{
			"bufferView":5,
			"componentType":5123,
			"count":5670,
			"type":"SCALAR"
		}
	],
	"bufferViews":[
		{
			"buffer":0,
			"byteLength":14820,
			"byteOffset":0,
			"target":34962
		},
		{
			"buffer":0,
			"byteLength":14820,
			"byteOffset":14820,
			"target":34962
		},
		{
			"buffer":0,
			"byteLength":9880,
			"byteOffset":29640,
			"target":34962
		},
		{
			"buffer":0,
			"byteLength":9880,
			"byteOffset":39520,
			"target":34962
		},
		{
			"buffer":0,
			"byteLength":19760,
			"byteOffset":49400,
			"target":34962
		},
		{
			"buffer":0,
			"byteLength":11340,
			"byteOffset":69160,
			"target":34963
		}
	],
	"samplers":[
		{
			"magFilter":9729,
			"minFilter":9987
		}
	],
	"buffers":[
		{
			"byteLength":80500,
			"uri":"Snowman.bin"
		}
	]
}
